<?xml version="1.0" encoding="UTF-8" standalone="no"?>
<!-- Created with Inkscape (http://www.inkscape.org/) -->

<svg
   xmlns:dc="http://purl.org/dc/elements/1.1/"
   xmlns:cc="http://creativecommons.org/ns#"
   xmlns:rdf="http://www.w3.org/1999/02/22-rdf-syntax-ns#"
   xmlns:svg="http://www.w3.org/2000/svg"
   xmlns="http://www.w3.org/2000/svg"
   xmlns:sodipodi="http://sodipodi.sourceforge.net/DTD/sodipodi-0.dtd"
   xmlns:inkscape="http://www.inkscape.org/namespaces/inkscape"
   id="svg2"
   version="1.1"
   inkscape:version="0.91 r13725"
   width="32"
   height="32"
   viewBox="0 0 32 32"
   sodipodi:docname="logo.svg">
  <metadata
     id="metadata8">
    <rdf:RDF>
      <cc:Work
         rdf:about="">
        <dc:format>image/svg+xml</dc:format>
        <dc:type
           rdf:resource="http://purl.org/dc/dcmitype/StillImage" />
        <dc:title></dc:title>
      </cc:Work>
    </rdf:RDF>
  </metadata>
  <defs
     id="defs6" />
  <sodipodi:namedview
     pagecolor="#ffffff"
     bordercolor="#666666"
     borderopacity="1"
     objecttolerance="10"
     gridtolerance="10"
     guidetolerance="10"
     inkscape:pageopacity="0"
     inkscape:pageshadow="2"
     inkscape:window-width="751"
     inkscape:window-height="480"
     id="namedview4"
     showgrid="false"
     inkscape:zoom="7.375"
     inkscape:cx="16"
     inkscape:cy="16"
     inkscape:window-x="0"
     inkscape:window-y="27"
     inkscape:window-maximized="0"
     inkscape:current-layer="svg2" />
  <g
     id="g4138">
    <path
       style="fill-opacity:1"
       d="M 2.9641118,29.932942 C 1.9320251,27.663648 3.2615404,25.029416 4.9519225,23.460847 6.1864012,22.238333 8.6795429,22.298036 8.6680307,20.074069 9.2445237,16.032287 9.1494708,11.933051 9.3044505,7.860319 9.3696337,5.4068793 9.4348168,2.9534397 9.5,0.5 c 6.666667,0 13.333333,0 20,0 0.149888,5.4465637 0.603737,10.897571 0.289995,16.345546 -0.201603,2.843606 -0.728285,6.171875 -3.377692,7.803872 -1.786714,1.307451 -4.579016,1.519433 -6.158863,-0.228844 -1.859037,-1.918366 -1.409377,-5.130943 0.330795,-6.972733 1.119115,-1.20957 2.558804,-2.382684 4.267327,-2.494716 C 26.112632,14.39309 25.968675,12.74646 26,11.579132 26,10.719422 26,9.8597108 26,9 21.666667,9 17.333333,9 13,9 c -0.03823,5.445264 0.104267,10.894827 -0.142442,16.335982 -0.126761,1.958054 -0.370934,4.260316 -2.188344,5.416591 -2.2171491,1.648069 -6.1634616,1.8535 -7.7051022,-0.819631 z M 25,5 C 24.020272,4.0644245 22.357895,4.2609264 21.070862,4.0603129 18.53818,3.9753969 15.923694,3.8870236 13.46875,4.609375 12.140762,5.5574365 15.200747,5.7646146 15.880066,5.8559876 18.754357,6.0539919 21.732275,6.1800044 24.53125,5.390625 24.702182,5.3062345 24.971793,5.2264941 25,5 Z"
       id="path4154"
       inkscape:connector-curvature="0" />
    <path
       style="fill-opacity:1"
       d="M 3.6666667,31.333333 C 2.9288731,29.961321 2.887652,28.253576 3.1466486,26.740752 3.7632099,24.152615 6.1022245,22.382207 8.5195813,21.569778 9.8671385,20.726096 9.7023005,18.899009 9.8746198,17.507012 10.095288,11.674569 9.9643337,5.8355885 10,0 c 6.333333,0 12.666667,0 19,0 -0.03013,6.3851125 0.07611,12.772321 -0.09043,19.155634 -0.11352,1.774496 -0.124971,3.966633 -1.81557,5.030758 -1.747413,1.430571 -4.506535,2.191025 -6.422831,0.646086 -2.055255,-1.571313 -2.01922,-4.758176 -0.477916,-6.67576 1.207421,-1.486057 2.825244,-2.914992 4.778617,-3.211456 C 26.144957,14.145297 25.969536,12.508027 26,11.242438 26,10.494959 26,9.7474794 26,9 21.666667,9 17.333333,9 13,9 c -0.03566,5.219203 0.09683,10.442301 -0.131572,15.657785 -0.101462,2.067566 -0.485553,4.369345 -2.25647,5.692456 -1.7477382,1.32004 -4.1786398,2.111037 -6.3234068,1.392107 C 4.0597834,31.643686 3.8434741,31.510231 3.6666667,31.333333 Z M 25,5 C 24.020272,4.0644245 22.357895,4.2609264 21.070862,4.0603129 18.53818,3.9753969 15.923694,3.8870236 13.46875,4.609375 12.140762,5.5574365 15.200747,5.7646146 15.880066,5.8559876 18.754357,6.0539919 21.732275,6.1800044 24.53125,5.390625 24.702182,5.3062345 24.971793,5.2264941 25,5 Z"
       id="path4152"
       inkscape:connector-curvature="0" />
    <path
       style="fill-opacity:1"
       d="M 4.2,30.8 C 2.3432767,28.900062 3.015777,25.747496 4.6018614,23.899001 5.5632283,22.711934 7.0429473,21.931742 8.5881747,21.982066 10.056574,21.375207 9.6908145,19.361752 9.8951964,18.047019 10.081051,12.033594 9.9693365,6.0156069 10,0 c 6.333333,0 12.666667,0 19,0 -0.03467,5.9694809 0.09371,11.942184 -0.125994,17.90878 -0.200514,2.116172 -0.112635,4.625048 -1.785072,6.202187 -2.029159,1.605231 -5.45986,2.048576 -7.274334,-0.112516 -1.226564,-1.416673 -0.912386,-3.51897 0.115317,-4.950818 1.141382,-1.709463 2.606061,-3.52277 4.684981,-4.035323 C 26.039284,14.755051 25.947698,12.805449 26,11.663306 26,10.775537 26,9.8877686 26,9 21.666667,9 17.333333,9 13,9 c -0.03566,5.219203 0.09683,10.442301 -0.131572,15.657785 -0.10934,1.994216 -0.438281,4.203452 -2.081478,5.548169 C 9.0913441,31.92611 6.0603601,32.7617 4.2,30.8 Z M 25,5 C 24.020272,4.0644245 22.357895,4.2609264 21.070862,4.0603129 18.53818,3.9753969 15.923694,3.8870236 13.46875,4.609375 12.140762,5.5574365 15.200747,5.7646146 15.880066,5.8559876 18.754357,6.0539919 21.732275,6.1800044 24.53125,5.390625 24.702182,5.3062345 24.971793,5.2264941 25,5 Z"
       id="path4150"
       inkscape:connector-curvature="0" />
    <path
       style="fill-opacity:1"
       d="M 4.2,30.8 C 2.3432767,28.900062 3.015777,25.747496 4.6018614,23.899001 5.5632283,22.711934 7.0429473,21.931742 8.5881747,21.982066 10.056574,21.375207 9.6908145,19.361752 9.8951964,18.047019 10.081051,12.033594 9.9693365,6.0156069 10,0 c 6.333333,0 12.666667,0 19,0 -0.04387,6.0128073 0.07523,12.028963 -0.143146,18.038796 -0.158686,2.1247 -0.215698,4.741371 -2.211973,6.038596 -1.638164,1.252519 -4.148439,1.916421 -5.894136,0.497688 -1.911898,-1.505048 -1.871383,-4.46205 -0.450796,-6.289153 1.027945,-1.598859 2.765428,-2.470749 4.473964,-3.132063 C 26.328707,13.989324 25.944875,11.872357 26,10.164968 25.896362,9.7399941 26.301311,8.8064335 25.579132,9 21.386088,9 17.193044,9 13,9 c -0.03566,5.219203 0.09683,10.442301 -0.131572,15.657785 -0.10934,1.994216 -0.438281,4.203452 -2.081478,5.548169 C 9.0913441,31.92611 6.0603601,32.7617 4.2,30.8 Z M 25,5 C 24.020272,4.0644245 22.357895,4.2609264 21.070862,4.0603129 18.53818,3.9753969 15.923694,3.8870236 13.46875,4.609375 12.140762,5.5574365 15.200747,5.7646146 15.880066,5.8559876 18.754357,6.0539919 21.732275,6.1800044 24.53125,5.390625 24.702182,5.3062345 24.971793,5.2264941 25,5 Z"
       id="path4148"
       inkscape:connector-curvature="0" />
    <path
       style="fill-opacity:1"
       d="M 4.2,30.8 C 2.3432767,28.900062 3.015777,25.747496 4.6018614,23.899001 5.5632283,22.711934 7.0429473,21.931742 8.5881747,21.982066 10.056574,21.375207 9.6908145,19.361752 9.8951964,18.047019 10.081051,12.033594 9.9693365,6.0156069 10,0 c 6.333333,0 12.666667,0 19,0 -0.03717,5.7112636 0.09953,11.426164 -0.132461,17.134017 -0.202873,2.25327 -0.205746,4.782422 -1.709327,6.615948 -1.335181,1.349394 -3.428432,1.335629 -5.186125,1.163243 -1.795379,-0.218874 -3.000898,-2.047298 -2.747726,-3.787747 0.255707,-2.7666 2.532826,-5.017284 5.136917,-5.751249 C 26.055129,14.646009 26.030157,12.58205 26,11.006703 26,10.337802 26,9.668901 26,9 21.666667,9 17.333333,9 13,9 c -0.03566,5.219203 0.09683,10.442301 -0.131572,15.657785 -0.10934,1.994216 -0.438281,4.203452 -2.081478,5.548169 C 9.0913441,31.92611 6.0603601,32.7617 4.2,30.8 Z M 25,5 C 24.020272,4.0644245 22.357895,4.2609264 21.070862,4.0603129 18.53818,3.9753969 15.923694,3.8870236 13.46875,4.609375 12.140762,5.5574365 15.200747,5.7646146 15.880066,5.8559876 18.754357,6.0539919 21.732275,6.1800044 24.53125,5.390625 24.702182,5.3062345 24.971793,5.2264941 25,5 Z"
       id="path4146"
       inkscape:connector-curvature="0" />
    <path
       style="fill-opacity:1"
       d="M 4.2,30.8 C 2.3432767,28.900062 3.015777,25.747496 4.6018614,23.899001 5.5632283,22.711934 7.0429473,21.931742 8.5881747,21.982066 10.056574,21.375207 9.6908145,19.361752 9.8951964,18.047019 10.081051,12.033594 9.9693365,6.0156069 10,0 c 6.333333,0 12.666667,0 19,0 -0.03498,5.9325113 0.09357,11.868153 -0.123468,17.797751 -0.144681,2.090059 -0.214169,4.617613 -2.145098,5.912104 -1.951958,1.605514 -5.333264,1.783132 -6.906676,-0.439172 -1.260924,-2.070404 0.09443,-4.655625 1.685977,-6.124815 1.238818,-1.335662 3.478417,-1.500998 4.175284,-3.35839 0.306049,-1.374809 0.8297,-3.482292 -0.508306,-4.428267 C 23.119726,8.7910278 20.939278,9.0794735 18.826612,9 16.884408,9 14.942204,9 13,9 c -0.03624,5.118504 0.09867,10.241147 -0.134899,15.355691 -0.09152,2.148483 -0.586459,4.453789 -2.332542,5.88694 C 9.0847107,31.732248 6.5544376,32.629209 4.7356029,31.256072 4.5446905,31.119415 4.3659657,30.965987 4.2,30.8 Z M 25,5 C 24.020272,4.0644245 22.357895,4.2609264 21.070862,4.0603129 18.53818,3.9753969 15.923694,3.8870236 13.46875,4.609375 12.140762,5.5574365 15.200747,5.7646146 15.880066,5.8559876 18.754357,6.0539919 21.732275,6.1800044 24.53125,5.390625 24.702182,5.3062345 24.971793,5.2264941 25,5 Z"
       id="path4144"
       inkscape:connector-curvature="0" />
    <path
       style="fill-opacity:1"
       d="M 4.0456808,30.555042 C 2.3923846,28.737551 2.9748729,25.798578 4.7680523,24.301145 6.2536291,22.969217 8.2087866,22.396433 9.9567152,21.5 9.9711435,14.333333 9.9855717,7.1666667 10,0 c 6.333333,0 12.666667,0 19,0 -0.03498,5.9325113 0.09357,11.868153 -0.123468,17.797751 -0.144681,2.090059 -0.214169,4.617613 -2.145098,5.912104 -1.95275,1.606438 -5.33666,1.782998 -6.908777,-0.442131 -1.256621,-2.057121 0.07133,-4.655722 1.706246,-6.07657 1.217118,-1.280405 3.526438,-1.236577 4.182129,-3.084257 C 26.197608,12.451413 25.930778,10.702276 26,9 21.666667,9 17.333333,9 13,9 c -0.03742,5.045049 0.09998,10.094544 -0.132351,15.135449 -0.07592,1.914984 -0.625833,3.898617 -2.117699,5.203035 C 9.4651113,30.593122 7.8990736,32.17187 5.9423051,31.857219 5.1688224,31.68926 4.5384124,31.150005 4.0456808,30.555042 Z M 26,5 C 24.91605,4.0402911 23.151071,4.2657615 21.765686,4.0593543 19.011443,3.9786056 16.181063,3.8760258 13.5,4.6057692 12.091352,5.4346868 14.929315,5.7414393 15.577942,5.8048096 18.783093,6.074761 22.071175,6.1717258 25.230957,5.481896 25.487361,5.3747077 25.921435,5.3241394 26,5 Z"
       id="path4142"
       inkscape:connector-curvature="0" />
    <path
       style="fill-opacity:1"
       d="M 4.0107774,30.512986 C 2.1780463,28.208578 3.5674822,24.739079 5.8414578,23.291462 7.11578,22.529636 8.5684587,22.146444 9.9365414,21.585478 10.124361,14.556985 10.312181,7.5284927 10.5,0.5 c 6,0 12,0 18,0 0.108087,5.300999 0.394575,10.601057 0.303687,15.903779 -0.156038,2.46342 -0.127532,5.204333 -1.688861,7.257034 -1.269724,1.391742 -3.466659,1.620889 -5.185992,1.068882 -2.263461,-0.958289 -2.597633,-4.016349 -1.579884,-6.002037 0.703838,-1.589027 2.350332,-2.530262 4.040051,-2.668616 C 26.068927,15.707343 25.994187,13.690228 26,12.346275 26,11.23085 26,10.115425 26,9 21.73102,9 17.462039,9 13.193059,9 12.963892,14.320926 12.906607,19.652073 12.486708,24.962369 12.338754,26.87446 11.835206,28.956705 10.139216,30.089465 8.8225216,31.127853 7.0014321,32.522566 5.2648824,31.608104 4.7726714,31.340143 4.3668963,30.940239 4.0107774,30.512986 Z M 26,5 C 24.91605,4.0402911 23.151071,4.2657615 21.765686,4.0593543 19.011443,3.9786056 16.181063,3.8760258 13.5,4.6057692 12.091352,5.4346868 14.929315,5.7414393 15.577942,5.8048096 18.783093,6.074761 22.071175,6.1717258 25.230957,5.481896 25.487361,5.3747077 25.921435,5.3241394 26,5 Z"
       id="path4140"
       inkscape:connector-curvature="0" />
  </g>
</svg>
