<?xml version="1.0" encoding="UTF-8" standalone="no"?>
<!-- Created with Inkscape (http://www.inkscape.org/) -->

<svg
   xmlns:dc="http://purl.org/dc/elements/1.1/"
   xmlns:cc="http://creativecommons.org/ns#"
   xmlns:rdf="http://www.w3.org/1999/02/22-rdf-syntax-ns#"
   xmlns:svg="http://www.w3.org/2000/svg"
   xmlns="http://www.w3.org/2000/svg"
   xmlns:sodipodi="http://sodipodi.sourceforge.net/DTD/sodipodi-0.dtd"
   xmlns:inkscape="http://www.inkscape.org/namespaces/inkscape"
   id="svg5788"
   version="1.1"
   inkscape:version="0.91 r13725"
   width="128"
   height="128"
   viewBox="0 0 128 128"
   sodipodi:docname="plus.svg">
  <metadata
     id="metadata5794">
    <rdf:RDF>
      <cc:Work
         rdf:about="">
        <dc:format>image/svg+xml</dc:format>
        <dc:type
           rdf:resource="http://purl.org/dc/dcmitype/StillImage" />
        <dc:title></dc:title>
      </cc:Work>
    </rdf:RDF>
  </metadata>
  <defs
     id="defs5792" />
  <sodipodi:namedview
     pagecolor="#ffffff"
     bordercolor="#666666"
     borderopacity="1"
     objecttolerance="10"
     gridtolerance="10"
     guidetolerance="10"
     inkscape:pageopacity="0"
     inkscape:pageshadow="2"
     inkscape:window-width="747"
     inkscape:window-height="480"
     id="namedview5790"
     showgrid="false"
     inkscape:zoom="1.84375"
     inkscape:cx="64"
     inkscape:cy="64"
     inkscape:window-x="0"
     inkscape:window-y="27"
     inkscape:window-maximized="0"
     inkscape:current-layer="svg5788" />
  <g
     id="g6918"
     transform="translate(-20,0)">
    <path
       style="fill:#0b0b0b"
       d="M 73.491569,108.78402 C 73.232095,108.07781 72.902844,100.75 72.7599,92.5 L 72.5,77.5 57,77 41.5,76.5 l 0,-10 0,-10 15.5,-0.5 15.5,-0.5 0.5,-16 0.5,-16 11,0 11,0 0.5,16 0.5,16 15.5,0.5 15.5,0.5 0,10 0,10 -15.5,0.5 -15.5,0.5 -0.5,16 -0.5,16 -10.768331,0.28402 c -8.063664,0.21268 -10.886825,-0.0385 -11.2401,-1 z"
       id="path6920"
       inkscape:connector-curvature="0" />
  </g>
</svg>
