<?xml version="1.0" encoding="UTF-8" standalone="no"?>
<!-- Created with Inkscape (http://www.inkscape.org/) -->

<svg
   xmlns:dc="http://purl.org/dc/elements/1.1/"
   xmlns:cc="http://creativecommons.org/ns#"
   xmlns:rdf="http://www.w3.org/1999/02/22-rdf-syntax-ns#"
   xmlns:svg="http://www.w3.org/2000/svg"
   xmlns="http://www.w3.org/2000/svg"
   xmlns:sodipodi="http://sodipodi.sourceforge.net/DTD/sodipodi-0.dtd"
   xmlns:inkscape="http://www.inkscape.org/namespaces/inkscape"
   id="svg6338"
   version="1.1"
   inkscape:version="0.91 r13725"
   width="128"
   height="128"
   viewBox="0 0 128 128"
   sodipodi:docname="previous.svg">
  <metadata
     id="metadata6344">
    <rdf:RDF>
      <cc:Work
         rdf:about="">
        <dc:format>image/svg+xml</dc:format>
        <dc:type
           rdf:resource="http://purl.org/dc/dcmitype/StillImage" />
        <dc:title></dc:title>
      </cc:Work>
    </rdf:RDF>
  </metadata>
  <defs
     id="defs6342" />
  <sodipodi:namedview
     pagecolor="#ffffff"
     bordercolor="#666666"
     borderopacity="1"
     objecttolerance="10"
     gridtolerance="10"
     guidetolerance="10"
     inkscape:pageopacity="0"
     inkscape:pageshadow="2"
     inkscape:window-width="1366"
     inkscape:window-height="702"
     id="namedview6340"
     showgrid="false"
     inkscape:zoom="1.84375"
     inkscape:cx="227.66546"
     inkscape:cy="64"
     inkscape:window-x="0"
     inkscape:window-y="27"
     inkscape:window-maximized="1"
     inkscape:current-layer="g6892" />
  <g
     id="g6892"
     transform="translate(80,0)">
    <path
       style="fill:#cbcbaa"
       d="M 20.310966,82.64356 C 10.969922,76.386037 1.8688563,69.666514 -7.9390286,64.172293 -9.4845685,75.81896 -8.0421956,87.692055 -9.3168909,99.38158 c -2.0643311,2.27048 -6.8237871,-3.779803 -9.7712651,-4.763109 -15.084079,-9.98559 -29.665991,-20.736926 -44.98537,-30.357669 -1.900722,4.605522 -1.134086,10.194945 -1.62165,15.204296 -0.179786,5.859033 -0.355485,11.718192 -0.533638,17.577272 -4.5,0.19713 -9,0.39426 -13.5,0.59138 0,-23.39425 0,-46.788504 0,-70.182757 4.5,0.197127 9,0.394253 13.5,0.59138 0.426145,10.261626 0.307034,20.562919 1.364835,30.785265 1.046911,4.665919 6.547221,-2.844441 9.261902,-3.454734 15.352417,-10.165729 30.156707,-21.183585 45.8399194,-30.830531 1.4255433,5.036806 0.7557669,10.576124 1.0291299,15.814703 0.1330359,6.845009 -0.2187046,13.781647 0.7939991,20.555377 C 3.0501983,54.667109 13.287429,47.134043 23.7639,40.057174 31.766329,34.532051 39.768757,29.006928 47.771186,23.481805 c 0.482913,26.038391 0.482949,52.082741 0,78.121135 C 38.617779,95.283147 29.464373,88.963353 20.310966,82.64356 Z"
       id="path6894"
       inkscape:connector-curvature="0" />
  </g>
</svg>
